<?xml version="1.0" encoding="utf-8"?>
<!-- Generator: Adobe Illustrator 16.0.0, SVG Export Plug-In . SVG Version: 6.00 Build 0)  -->
<!DOCTYPE svg PUBLIC "-//W3C//DTD SVG 1.1//EN" "http://www.w3.org/Graphics/SVG/1.1/DTD/svg11.dtd">
<svg version="1.1" id="Layer_1" xmlns="http://www.w3.org/2000/svg" xmlns:xlink="http://www.w3.org/1999/xlink" x="0px" y="0px"
	 width="224.71px" height="71.434px" viewBox="13.998 12.152 224.71 71.434" enable-background="new 13.998 12.152 224.71 71.434"
	 xml:space="preserve">
<g>
	<g>
		<path fill="#267BB2" d="M47.574,28.354c-0.017-0.007-0.034-0.016-0.059-0.025c0.03,0.019,0.052,0.036,0.077,0.052
			C47.588,28.374,47.582,28.364,47.574,28.354z"/>
		<path fill="#267BB2" d="M50.66,14.252c-0.88-0.375-1.786-0.699-2.712-0.979c-2.409-0.725-4.963-1.121-7.604-1.121
			c-14.551,0-26.346,11.797-26.346,26.347c0,0.047,0.006,0.094,0.006,0.141c0,0.048-0.006,0.094-0.006,0.143
			c0,6.562,2.385,12.562,6.333,17.194l8.48,11.586l11.723,16.022l17.794-24.319l2.405-3.289c3.95-4.634,6.335-10.633,6.335-17.194
			C67.069,27.713,60.289,18.232,50.66,14.252z M53.156,41.352c-0.073,0.397-0.161,0.797-0.271,1.194
			c-0.925,3.304-3.068,5.942-5.805,7.567l-4.509,3.092L32.146,59.36c0,0,4.277-8.12,3.96-8.236
			c-6.224-2.279-9.737-9.002-7.919-15.495c1.906-6.819,8.979-10.798,15.806-8.895c1.282,0.363,2.464,0.905,3.523,1.594
			c0.023,0.009,0.042,0.019,0.059,0.025c0.008,0.01,0.015,0.02,0.02,0.026C51.802,31.151,54.078,36.236,53.156,41.352z"/>
		<path fill="#267BB2" d="M35.298,58.194"/>
	</g>
	<g>
		<g>
			<path fill="#267BB2" d="M97.029,74.062c0,2.314-1.209,3.707-3.207,4.537c-0.358,0.15-2.094,0.635-4.174,0.42
				c-2.205-0.227-3.823-0.987-3.823-0.987c-0.693-0.368-0.962-1.224-0.597-1.909c0.363-0.688,1.188-0.876,1.917-0.583
				c2.082,0.851,3.9,1.021,5.19,0.647c1.139-0.321,1.869-1.062,1.928-2.112v-0.246c0-1.296-0.985-2.271-2.349-2.347l0.005-0.018
				l-2.344-0.293v-0.006c-2.363-0.326-4.183-2.33-4.183-4.76c0-2.332,1.631-4.035,3.183-4.611c0.616-0.232,1.554-0.373,2.844-0.373
				c2.055,0,3.717,0.791,3.717,0.791c0.656,0.318,0.934,1.1,0.619,1.75c-0.311,0.653-1.068,0.854-1.752,0.605
				c-1.961-0.707-3.499-0.537-3.499-0.537c-1.296,0-2.35,1.048-2.35,2.349c0,1.295,1.062,2.167,2.35,2.347
				c0.784,0.109,1.808,0.228,1.808,0.228c3.299,0.353,4.715,2.231,4.715,4.845v0.262h0.002V74.062z"/>
			<path fill="#267BB2" d="M91.3,67.944"/>
			<path fill="#267BB2" d="M85.251,77.683"/>
			<path fill="#267BB2" d="M89.668,76.452"/>
			<path fill="#267BB2" d="M91.978,76.76"/>
			<path fill="#267BB2" d="M85.251,74.028"/>
			<path fill="#267BB2" d="M118.171,76.29c-1.465,0.497-1.973,0.4-2.834,0.413c-1.199,0.021-2.125-1.166-2.115-2.304l0.011-0.69
				h5.839c0.591,0,1.071-0.479,1.074-1.076l0.021-1.114c-0.013-2.601-2.159-4.705-4.797-4.695c-2.642,0.014-4.765,2.134-4.754,4.74
				l-0.021,2.8c0.015,2.604,2.158,4.706,4.799,4.7c0,0,1.771,0.156,3.443-0.607c0.244-0.115,0.307-0.119,0.522-0.236
				c0.551-0.287,0.705-1.018,0.384-1.551c-0.319-0.535-1.013-0.708-1.549-0.384L118.171,76.29z M117.843,71.828h-4.611v-0.707
				c-0.002-1.256,1.022-2.279,2.296-2.285c1.272-0.007,2.311,1.009,2.315,2.267V71.828z"/>
			<path fill="#267BB2" d="M106.644,76.29c-1.461,0.497-1.973,0.4-2.83,0.413c-1.201,0.021-2.125-1.166-2.113-2.304l0.01-0.69h5.837
				c0.589,0,1.07-0.479,1.072-1.076l0.022-1.114c-0.015-2.601-2.16-4.705-4.797-4.695c-2.641,0.016-4.768,2.134-4.754,4.74
				l-0.023,2.8c0.011,2.604,2.158,4.706,4.798,4.7c0,0,1.771,0.156,3.444-0.607c0.245-0.115,0.307-0.119,0.523-0.236
				c0.553-0.287,0.704-1.018,0.387-1.551c-0.322-0.535-1.018-0.708-1.552-0.384L106.644,76.29z M106.32,71.828h-4.609v-0.707
				c-0.003-1.256,1.021-2.279,2.294-2.285c1.272-0.007,2.31,1.009,2.315,2.267V71.828L106.32,71.828z"/>
			<g>
				<ellipse fill="#267BB2" cx="80.716" cy="63.456" rx="1.466" ry="1.454"/>
				<path fill="#267BB2" d="M79.388,68.14c0-0.712,0.584-1.289,1.305-1.289c0.724,0,1.304,0.577,1.304,1.289v9.644
					c0,0.714-0.582,1.29-1.304,1.29c-0.721,0-1.305-0.576-1.305-1.29V68.14z"/>
			</g>
			<path fill="#267BB2" d="M125.248,71.51v-8.245c0-0.715-0.582-1.293-1.302-1.293c-0.723,0-1.305,0.578-1.305,1.293v14.514
				c0,0.717,0.586,1.293,1.305,1.293c0.72,0,1.302-0.576,1.302-1.293v-3.076l1.431-1.406c0.433,0.778,3.005,5.035,3.005,5.035
				c0.33,0.59,1.088,0.807,1.689,0.469c0.604-0.332,0.819-1.088,0.489-1.684l-3.282-5.627l2.821-2.741
				c0.435-0.462,0.408-1.188-0.057-1.616c-0.463-0.438-1.186-0.408-1.619,0.053L125.248,71.51z"/>
		</g>
		<g>
			<g>
				<path fill="#267BB2" d="M100.48,18.675"/>
				<path fill="#267BB2" d="M91.95,14.4"/>
				<path fill="#267BB2" d="M79.771,17.582h-4.757v-2.409h12.272v2.409h-4.754v13.105H79.77L79.771,17.582L79.771,17.582z"/>
				<path fill="#267BB2" d="M94.413,19.864c0.687,0,1.273,0.119,1.765,0.361c0.488,0.241,0.889,0.559,1.205,0.954
					c0.312,0.394,0.544,0.845,0.688,1.358c0.146,0.511,0.219,1.035,0.219,1.578v6.575h-2.627v-5.787c0-0.306-0.021-0.624-0.065-0.95
					c-0.043-0.33-0.131-0.629-0.272-0.9c-0.139-0.271-0.334-0.492-0.591-0.669c-0.258-0.176-0.596-0.263-1.02-0.263
					s-0.787,0.08-1.096,0.242c-0.308,0.16-0.562,0.376-0.767,0.646c-0.207,0.271-0.362,0.575-0.461,0.907
					c-0.105,0.337-0.152,0.681-0.152,1.032v5.742h-2.631V14.118h2.631v7.519h0.044c0.107-0.22,0.254-0.434,0.448-0.647
					c0.197-0.211,0.427-0.401,0.691-0.569c0.264-0.165,0.562-0.304,0.897-0.405C93.652,19.913,94.019,19.864,94.413,19.864z"/>
				<path fill="#267BB2" d="M111.398,25.562c0,0.113,0,0.23,0,0.349c0,0.117-0.009,0.234-0.022,0.351h-8
					c0.03,0.379,0.131,0.726,0.295,1.04c0.17,0.313,0.392,0.587,0.669,0.811c0.278,0.226,0.591,0.405,0.941,0.537
					c0.354,0.133,0.718,0.199,1.097,0.199c0.658,0,1.215-0.123,1.666-0.363c0.449-0.24,0.824-0.572,1.115-0.997l1.756,1.403
					c-1.037,1.403-2.543,2.103-4.516,2.103c-0.82,0-1.568-0.128-2.258-0.382c-0.687-0.256-1.281-0.617-1.786-1.084
					c-0.502-0.468-0.896-1.042-1.183-1.722c-0.284-0.68-0.429-1.449-0.429-2.312c0-0.848,0.145-1.617,0.429-2.309
					c0.284-0.695,0.678-1.288,1.173-1.776c0.493-0.49,1.085-0.87,1.764-1.141c0.68-0.271,1.415-0.404,2.203-0.404
					c0.729,0,1.408,0.119,2.027,0.361c0.62,0.241,1.16,0.599,1.611,1.073c0.45,0.476,0.807,1.066,1.061,1.777
					C111.271,23.783,111.398,24.61,111.398,25.562z M108.765,24.377c0-0.337-0.045-0.658-0.142-0.965
					c-0.096-0.305-0.249-0.576-0.448-0.81c-0.205-0.234-0.465-0.418-0.776-0.56c-0.313-0.138-0.685-0.208-1.106-0.208
					c-0.791,0-1.46,0.238-2.007,0.711c-0.549,0.475-0.851,1.084-0.909,1.831L108.765,24.377L108.765,24.377z"/>
			</g>
			<path fill="#267BB2" d="M96.406,47.507c0,1.292-0.22,2.46-0.665,3.501c-0.444,1.048-1.054,1.933-1.822,2.659
				c-0.767,0.729-1.681,1.292-2.728,1.688c-1.059,0.394-2.2,0.588-3.436,0.588s-2.377-0.195-3.432-0.588
				c-1.052-0.396-1.968-0.955-2.747-1.688c-0.776-0.729-1.387-1.611-1.817-2.659c-0.434-1.041-0.654-2.209-0.654-3.501V33.904h3.828
				v13.448c0,0.628,0.079,1.248,0.242,1.862c0.16,0.619,0.43,1.174,0.803,1.656c0.375,0.488,0.873,0.883,1.489,1.188
				c0.62,0.305,1.38,0.455,2.29,0.455c0.911,0,1.674-0.15,2.297-0.455c0.611-0.305,1.109-0.699,1.486-1.188
				c0.374-0.482,0.636-1.037,0.803-1.656c0.162-0.615,0.244-1.238,0.244-1.862V33.904h3.822v13.603H96.406z"/>
			<path fill="#267BB2" d="M100.962,33.904h5.067l9.982,16.09h0.064v-16.09h3.825v21.494h-4.854L104.849,38.79h-0.062v16.607h-3.824
				L100.962,33.904L100.962,33.904z"/>
			<path fill="#267BB2" d="M132.224,33.904h3.824v21.494h-3.824V33.904z"/>
			<path fill="#267BB2" d="M140.603,40.825h3.458v2.339h0.065c0.326-0.729,0.885-1.373,1.683-1.929
				c0.8-0.557,1.747-0.834,2.835-0.834c0.951,0,1.767,0.168,2.447,0.502c0.676,0.334,1.232,0.773,1.67,1.317
				c0.436,0.548,0.753,1.176,0.957,1.885c0.197,0.708,0.305,1.435,0.305,2.185v9.107h-3.646v-8.073c0-0.425-0.027-0.872-0.089-1.336
				c-0.066-0.463-0.195-0.883-0.397-1.26c-0.199-0.373-0.479-0.681-0.83-0.923c-0.354-0.244-0.826-0.363-1.413-0.363
				c-0.588,0-1.095,0.116-1.518,0.348c-0.425,0.233-0.774,0.53-1.048,0.894c-0.272,0.366-0.479,0.786-0.623,1.258
				c-0.145,0.478-0.21,0.958-0.21,1.44v8.021h-3.645V40.825H140.603z"/>
			<path fill="#267BB2" d="M156.174,43.741v-2.916h2.55v-4.217h3.583v4.217h3.64v2.916h-3.64v6.769c0,0.646,0.116,1.183,0.348,1.608
				c0.231,0.423,0.752,0.639,1.565,0.639c0.242,0,0.502-0.027,0.787-0.079c0.283-0.049,0.536-0.122,0.76-0.227l0.121,2.854
				c-0.32,0.119-0.707,0.213-1.156,0.283c-0.444,0.073-0.873,0.11-1.271,0.11c-0.974,0-1.766-0.138-2.371-0.41
				c-0.607-0.274-1.088-0.646-1.44-1.124c-0.354-0.475-0.597-1.021-0.732-1.643c-0.127-0.617-0.193-1.279-0.193-1.988v-6.797h-2.551
				L156.174,43.741L156.174,43.741L156.174,43.741z"/>
			<path fill="#267BB2" d="M168.588,40.825h3.49v2.428h0.06c0.406-0.846,0.975-1.536,1.7-2.063c0.728-0.525,1.579-0.789,2.548-0.789
				c0.143,0,0.295,0.006,0.459,0.015c0.164,0.01,0.301,0.035,0.423,0.075v3.341c-0.241-0.061-0.448-0.104-0.62-0.122
				c-0.176-0.021-0.34-0.029-0.502-0.029c-0.832,0-1.498,0.153-2.008,0.456c-0.5,0.305-0.9,0.667-1.18,1.093
				c-0.285,0.423-0.479,0.858-0.576,1.303c-0.104,0.447-0.152,0.802-0.152,1.064v7.806h-3.646L168.588,40.825L168.588,40.825z"/>
			<path fill="#267BB2" d="M188.287,53.547h-0.089c-0.362,0.644-0.951,1.179-1.764,1.591c-0.805,0.418-1.729,0.625-2.756,0.625
				c-0.594,0-1.201-0.07-1.84-0.227c-0.637-0.151-1.221-0.407-1.758-0.762c-0.541-0.354-0.984-0.813-1.342-1.396
				c-0.353-0.576-0.525-1.29-0.525-2.143c0-1.093,0.306-1.958,0.919-2.604c0.621-0.648,1.413-1.146,2.386-1.489
				c0.968-0.343,2.051-0.575,3.234-0.68c1.184-0.112,2.34-0.169,3.473-0.169V45.93c0-0.913-0.327-1.585-0.983-2.019
				c-0.66-0.437-1.441-0.655-2.353-0.655c-0.772,0-1.513,0.164-2.217,0.489c-0.707,0.323-1.297,0.715-1.763,1.182l-1.883-2.215
				c0.828-0.768,1.789-1.346,2.871-1.73c1.082-0.387,2.181-0.578,3.291-0.578c1.294,0,2.365,0.183,3.205,0.547
				c0.834,0.364,1.501,0.839,1.988,1.426c0.483,0.585,0.824,1.243,1.016,1.973c0.193,0.727,0.285,1.458,0.285,2.186v8.865h-3.401
				v-1.854H188.287z M188.227,48.748h-0.816c-0.591,0-1.207,0.026-1.853,0.078c-0.649,0.047-1.246,0.163-1.791,0.329
				c-0.544,0.172-1.003,0.416-1.365,0.729c-0.364,0.313-0.547,0.742-0.547,1.287c0,0.347,0.076,0.636,0.229,0.864
				c0.148,0.236,0.352,0.421,0.592,0.564c0.242,0.14,0.514,0.24,0.818,0.303c0.303,0.062,0.606,0.091,0.908,0.091
				c1.256,0,2.207-0.33,2.854-1c0.651-0.67,0.972-1.578,0.972-2.736L188.227,48.748L188.227,48.748z"/>
			<path fill="#267BB2" d="M195.939,40.825h3.461v2.339h0.057c0.326-0.729,0.885-1.373,1.683-1.929
				c0.808-0.557,1.752-0.834,2.843-0.834c0.953,0,1.767,0.168,2.444,0.502c0.679,0.334,1.238,0.773,1.67,1.317
				c0.434,0.548,0.752,1.176,0.951,1.885c0.207,0.708,0.307,1.435,0.307,2.185v9.107h-3.643v-8.073c0-0.425-0.027-0.872-0.086-1.336
				c-0.064-0.463-0.198-0.883-0.396-1.26c-0.203-0.373-0.479-0.681-0.836-0.923c-0.356-0.244-0.824-0.363-1.41-0.363
				c-0.59,0-1.094,0.116-1.521,0.348c-0.421,0.233-0.772,0.53-1.043,0.894c-0.275,0.366-0.486,0.786-0.625,1.258
				c-0.14,0.478-0.212,0.958-0.212,1.44v8.021h-3.644L195.939,40.825L195.939,40.825z"/>
			<path fill="#267BB2" d="M227.506,48.295c0,0.16,0,0.326,0,0.484c0,0.162-0.009,0.327-0.03,0.486h-11.078
				c0.039,0.527,0.172,1.007,0.406,1.444c0.237,0.435,0.547,0.812,0.928,1.122c0.385,0.312,0.82,0.562,1.306,0.745
				c0.489,0.182,0.989,0.272,1.52,0.272c0.91,0,1.678-0.17,2.307-0.504c0.623-0.334,1.142-0.793,1.548-1.381l2.428,1.945
				c-1.437,1.943-3.521,2.91-6.25,2.91c-1.134,0-2.178-0.174-3.13-0.528c-0.95-0.354-1.774-0.856-2.473-1.504
				c-0.7-0.647-1.246-1.442-1.642-2.384c-0.394-0.941-0.587-2.008-0.587-3.202c0-1.174,0.193-2.245,0.587-3.203
				c0.397-0.961,0.938-1.783,1.626-2.461c0.683-0.677,1.502-1.203,2.442-1.578c0.941-0.374,1.957-0.562,3.05-0.562
				c1.014,0,1.949,0.168,2.809,0.502c0.861,0.334,1.606,0.83,2.232,1.486c0.626,0.659,1.117,1.479,1.47,2.458
				C227.329,45.829,227.506,46.978,227.506,48.295z M223.861,46.653c0-0.463-0.063-0.911-0.196-1.335
				c-0.129-0.424-0.338-0.798-0.621-1.123c-0.284-0.322-0.645-0.582-1.077-0.775c-0.43-0.193-0.945-0.288-1.534-0.288
				c-1.089,0-2.021,0.329-2.771,0.987c-0.763,0.656-1.185,1.502-1.263,2.536L223.861,46.653L223.861,46.653z"/>
			<path fill="#267BB2" d="M228.933,43.741v-2.916h2.551v-4.217h3.578v4.217h3.646v2.916h-3.646v6.769
				c0,0.646,0.118,1.183,0.351,1.608c0.229,0.423,0.754,0.639,1.562,0.639c0.243,0,0.504-0.027,0.79-0.079
				c0.285-0.049,0.538-0.122,0.764-0.227l0.121,2.854c-0.324,0.119-0.713,0.213-1.155,0.283c-0.446,0.073-0.873,0.11-1.277,0.11
				c-0.97,0-1.762-0.138-2.367-0.41c-0.604-0.274-1.084-0.646-1.442-1.124c-0.354-0.475-0.595-1.021-0.729-1.643
				c-0.129-0.617-0.193-1.279-0.193-1.988v-6.797h-2.549L228.933,43.741L228.933,43.741z"/>
		</g>
	</g>
</g>
</svg>
