<?xml version="1.0" encoding="utf-8"?>
<!-- Generator: Adobe Illustrator 16.0.0, SVG Export Plug-In . SVG Version: 6.00 Build 0)  -->
<!DOCTYPE svg PUBLIC "-//W3C//DTD SVG 1.1//EN" "http://www.w3.org/Graphics/SVG/1.1/DTD/svg11.dtd">
<svg version="1.1" id="Layer_1" xmlns="http://www.w3.org/2000/svg" xmlns:xlink="http://www.w3.org/1999/xlink" x="0px" y="0px"
	 width="144.734px" height="70.986px" viewBox="17.145 12.563 144.734 70.986"
	 enable-background="new 17.145 12.563 144.734 70.986" xml:space="preserve">
<g>
	<polygon fill="#267BB2" points="48.262,41.153 21.713,83.547 27.975,83.549 57.848,35.847 	"/>
	<g>
		<path fill="#267BB2" d="M89.237,39.354c1.051,2.023,1.348,4.811,0.668,7.094c-0.693,2.7-2.961,5.43-5.605,6.54
			c-2.978,1.459-7.209,1.095-9.858-0.809c-3.691-2.527-5.2-6.881-4.083-11.18c0.674-2.554,2.709-5.131,5.196-6.318
			c1.396-0.691,2.928-1.059,4.593-1.088C83.952,33.597,87.583,35.831,89.237,39.354z M80.35,34.086
			c0.059,0.399,0.042,0.945,0.014,1.394c0-0.045,0.02-0.086,0.045-0.12c0.07-0.04,0.133,0.02,0.163,0.07
			c0.005,0.071,0.032,0.191-0.028,0.231c0.062,0.01,0.09-0.034,0.146-0.034c1.156,0.084,2.227,0.424,3.186,0.969v-0.025
			c0.197-0.096,0.45-0.222,0.648-0.052c0.244-0.089,0.292,0.207,0.491,0.244c0.232,0.141,0.501,0.403,0.529,0.681
			c0.05,0.09,0.188,0.156,0.207,0.251c0.162-0.342,0.484-0.584,0.765-0.884l0.17-0.069c-1.523-1.454-3.336-2.255-5.354-2.533
			C81.008,34.154,80.656,34.184,80.35,34.086z M79.784,34.136c-2.029,0.081-3.828,0.774-5.431,1.925
			c-0.307,0.209-0.579,0.534-0.895,0.716h0.047c0.398,0.293,0.777,0.71,1.114,1.075l0.024-0.072c1.475-1.344,3.189-2.08,5.156-2.171
			l-0.044-0.121l-0.015-1.211L79.784,34.136z M81.514,34.897l-0.728,0.313c-0.062-0.024-0.178-0.055-0.216,0.027
			c-0.03,0.025,0,0.06,0.009,0.084c0.269,0.345,0.733,0.151,1.066,0.085c0.24,0.102,0.473-0.021,0.651-0.17v-0.037
			C82.128,34.958,81.804,34.924,81.514,34.897z M80.339,36.145l0.049,0.098c-0.009,0.468,0.021,0.968-0.023,1.405
			c0.19-0.064,0.387,0.018,0.581,0.021c0.989,0.161,1.921,0.481,2.715,1.091c-0.096-0.102-0.215-0.218-0.233-0.365
			c0.017-0.02,0.035-0.024,0.062-0.02c0.007-0.155-0.16-0.236-0.182-0.378c0.021-0.03,0.059-0.059,0.106-0.043
			c0.174,0.16,0.322,0.337,0.445,0.518c0.111-0.046,0.201,0.027,0.284,0.086c0.146,0.086,0.057,0.273,0.164,0.372
			c0.021,0.297,0.385,0.465,0.363,0.762c0.004,0.073,0.095,0.018,0.122,0.052l0.303,0.373c-0.056,0.071-0.01,0.158,0.049,0.208
			c0.135,0.06,0.214-0.113,0.352-0.087c0.195,0.112-0.03,0.243-0.012,0.362c0.078,0.007,0.174-0.058,0.23,0.017
			c0.026,0.112-0.092,0.183-0.139,0.252c0,0.111,0.096,0.086,0.175,0.111c0.091-0.002,0.146,0.105,0.123,0.182
			c0.25,0.263-0.076,0.546,0.043,0.823c0.08,0.181-0.02,0.357-0.13,0.495c0.005,0.221-0.194,0.357-0.273,0.545l-0.261,0.051
			c-0.138,0.136,0.115,0.301-0.021,0.389l0.564,0.009l-0.06-0.06c-0.081-0.222-0.062-0.521,0.077-0.716
			c0.082-0.182,0.102-0.398,0.262-0.557c0.039-0.01,0.104-0.074,0.132,0c0.01,0.173-0.002,0.37-0.085,0.52
			c0.16,0.232,0.144,0.536,0.158,0.824c0.5-0.03,0.988-0.042,1.477-0.037l-0.045-0.094c-0.074-0.934-0.264-1.817-0.655-2.615
			c-0.107,0.005-0.181,0.09-0.301,0.061c-0.042-0.016-0.066-0.056-0.061-0.102c-0.205-0.191-0.329-0.445-0.56-0.616
			c-0.255,0.027-0.37-0.273-0.605-0.305c-0.203-0.084-0.064-0.417-0.358-0.327c-0.148-0.059-0.292-0.171-0.32-0.338
			c0-0.262-0.051-0.544-0.287-0.716c-0.181-0.064-0.259,0.176-0.439,0.137c-0.102-0.05-0.055-0.183-0.086-0.268
			c-0.037-0.076-0.12-0.131-0.105-0.231c0.236-0.312-0.287-0.308-0.173-0.617c-0.025-0.223-0.256-0.308-0.372-0.483
			c-0.78-0.354-1.561-0.596-2.445-0.702C80.725,36.202,80.524,36.246,80.339,36.145z M84.904,36.155
			c-0.105,0.102-0.197-0.091-0.292,0.026c-0.004,0.055,0.008,0.106,0.035,0.146c0.212,0.076,0.235,0.384,0.51,0.313
			c0.081-0.092-0.049-0.186-0.026-0.302C85.096,36.231,85.006,36.185,84.904,36.155z M75.846,37.512
			c-0.312,0.218-0.603,0.5-0.923,0.691c0.373,0.239,0.68,0.633,1.021,0.944l0.032,0.095c0.857-0.822,1.9-1.302,3.025-1.534
			c0.271-0.024,0.539-0.116,0.798-0.061c-0.019-0.479-0.059-0.976-0.008-1.451C78.331,36.282,77.018,36.724,75.846,37.512z
			 M87.059,37.054c-0.275,0.376-0.658,0.721-1.004,1.08l-0.171,0.036c0.105,0.023,0.138,0.151,0.201,0.226
			c0.371,0.198,0.47,0.59,0.793,0.814c0.181,0.375,0.603,0.67,0.613,1.103c0.438,0.97,0.735,1.995,0.768,3.134l-0.038,0.061
			c0.043,0,0.084-0.02,0.116-0.044l1.455-0.026c-0.095-0.142-0.057-0.35-0.08-0.52C89.522,40.671,88.563,38.749,87.059,37.054z
			 M73.186,37.088c-1.444,1.6-2.332,3.428-2.587,5.511c-0.058,0.303-0.02,0.616-0.083,0.922c0.504-0.039,1.057-0.039,1.562,0
			l-0.04-0.194c0.099-1.612,0.613-3.043,1.519-4.325c0.229-0.258,0.391-0.582,0.678-0.773c-0.33-0.306-0.676-0.667-1.018-1.003
			L73.186,37.088z M79.821,38.142l-0.086,0.051c-1.285,0.092-2.395,0.625-3.367,1.43c0.384,0.266,0.723,0.697,1.074,1.004
			c0.023-0.036,0.051-0.07,0.075-0.11c0.479-0.346,0.975-0.658,1.538-0.798c0.254-0.026,0.5-0.145,0.766-0.087
			C79.766,39.159,79.766,38.633,79.821,38.142z M80.35,38.154l0.052,0.111l-0.015,1.366l0.131-0.023
			c0.838,0.115,1.604,0.384,2.268,0.923l0.037,0.106c0.225-0.317,0.567-0.592,0.837-0.894l0.251-0.147l-0.121-0.051
			c-0.554-0.463-1.159-0.817-1.818-1.047C81.461,38.316,80.905,38.24,80.35,38.154z M74.557,38.532l-0.007,0.095l-0.543,0.692
			c-0.896,1.227-1.317,2.646-1.447,4.188l1.386-0.024l0.129,0.05c-0.054-0.037-0.04-0.096-0.059-0.146
			c0.108-1.438,0.614-2.722,1.606-3.792C75.243,39.265,74.883,38.913,74.557,38.532z M84.212,39.935l-0.023,0.061
			c-0.466,0.484-0.976,0.983-1.42,1.479c0.031,0.061,0.085,0.116,0.141,0.146c0.021-0.12,0.082-0.228,0.094-0.354
			c0.121-0.165,0.306-0.061,0.459-0.025c0.245-0.055,0.47,0.055,0.715,0.051c0.184,0.09,0.198,0.323,0.367,0.415
			c0.042,0.065,0.013,0.14-0.051,0.191c0.051,0.377,0.23-0.102,0.422-0.012c0.082,0.031,0.183,0.021,0.242,0.108
			c0.031,0.155,0.225,0.125,0.232,0.277c-0.017,0.076-0.098,0.093-0.148,0.135c0.049,0.151-0.153,0.248-0.084,0.409
			c0.293,0.055,0.304-0.281,0.441-0.434c-0.078-0.262-0.133-0.531-0.285-0.761c-0.168-0.035-0.269-0.232-0.435-0.267
			c-0.323-0.127,0.054-0.332,0.015-0.521C84.719,40.51,84.444,40.222,84.212,39.935z M76.001,39.987
			c-0.693,0.83-1.169,1.749-1.355,2.792c-0.054,0.244-0.024,0.527-0.119,0.753c0.176-0.081,0.434-0.05,0.631-0.026
			c-0.117-0.061-0.02-0.206-0.084-0.288c-0.018-0.126-0.037-0.281,0.084-0.362c-0.014-0.208,0.207-0.314,0.226-0.502
			c0.058-0.209,0.301-0.069,0.415-0.18c0.075-0.042,0.013-0.11,0.013-0.166c0.096-0.138,0.256-0.132,0.379-0.208
			c0.086-0.131,0.194-0.272,0.335-0.353c0.302,0.011,0.308-0.413,0.597-0.426C76.723,40.728,76.354,40.33,76.001,39.987z
			 M80.364,40.152c0.1,0.285,0.01,0.71,0.068,1.045l0.366,0.121c0.105-0.178,0.336-0.212,0.438-0.378
			c0.063-0.056,0.142,0,0.194,0.06c0.011,0.137-0.024,0.272-0.063,0.404c-0.135,0.274-0.457,0.307-0.643,0.504
			c0.116,0.065,0.186-0.057,0.276-0.079c0.145,0.011,0.256,0.136,0.343,0.224c0.091,0.042,0.172-0.014,0.256-0.043
			c0.058-0.42,0.579-0.359,0.733-0.754l-0.094,0.037c-0.04-0.058-0.141-0.032-0.135-0.123c0.085-0.08,0.192-0.206,0.302-0.242
			c-0.456-0.281-0.921-0.524-1.437-0.654C80.767,40.227,80.554,40.222,80.364,40.152z M77.647,41.206h0.108
			c0.123,0.122,0.322,0.097,0.411,0.258c0.044,0.09-0.085,0.079-0.081,0.157c0.026,0.02,0.062,0.026,0.081,0.059
			c0.099,0.035,0.077-0.055,0.111-0.094c0.126-0.127,0.146,0.121,0.271,0.121c0.084-0.056,0.205-0.061,0.264,0.035
			c0.081-0.071,0.253-0.006,0.277-0.136c0.157-0.167,0.07-0.423,0.308-0.531c0.078,0.045-0.008,0.123,0.023,0.192
			c0.155,0.066,0.331-0.13,0.46,0.026c-0.114-0.328-0.087-0.736-0.078-1.102C78.992,40.298,78.245,40.575,77.647,41.206z
			 M80.094,42.043c-0.076-0.09-0.259-0.034-0.359,0c0.096,0.103,0.06,0.284,0.119,0.408c-0.15,0.251-0.404,0.309-0.64,0.379
			c-0.068,0.081-0.055,0.256-0.211,0.243c-0.049,0.111-0.221,0.176-0.151,0.337c-0.083,0.171-0.044,0.394-0.089,0.582
			c-0.299,0.187-0.215-0.249-0.364-0.341l-0.049,0.087c-0.062,0.016-0.103-0.021-0.144-0.061c-0.044-0.017-0.121-0.029-0.159,0.008
			c-0.064,0.11-0.169,0.203-0.145,0.356c-0.03,0.09-0.181,0.058-0.16,0.156c0.169-0.007,0.347-0.035,0.509-0.071
			c0.115,0.031,0.213-0.056,0.33-0.061c0.041,0.019,0.086,0.061,0.068,0.119h0.045c0.077-0.058,0.112-0.15,0.077-0.239
			c0.011-0.108,0.126-0.108,0.198-0.136c0.066,0.028,0.026,0.094,0.032,0.145c0.23,0.087-0.055,0.253-0.085,0.375
			c-0.058,0.095,0,0.312-0.191,0.282c-0.031-0.012-0.06-0.045-0.049-0.086H78.65c-0.002,0.081,0.061,0.192,0.137,0.225
			c0.146-0.115,0.149-0.311,0.35-0.335c0.105-0.112-0.047-0.283,0.11-0.373c0.267-0.006,0.547-0.118,0.753,0.095
			c-0.016,0.09-0.048,0.13,0.024,0.206c-0.05,0.115-0.085,0.243-0.182,0.339c0.023,0.066,0.006,0.147-0.05,0.192
			c-0.07,0.309-0.427,0.162-0.634,0.268c0.32,0.243,0.702,0.333,1.115,0.302c0.219-0.01,0.126-0.277,0.233-0.397
			c0.07-0.355,0.396-0.111,0.594-0.208c0.07-0.151,0.146-0.298,0.168-0.47c-0.125-0.08-0.174-0.231-0.137-0.376
			c-0.084-0.117-0.075-0.331-0.259-0.351c-0.034-0.04-0.011-0.09,0.02-0.121c-0.012-0.11,0.103-0.146,0.135-0.231
			c-0.115-0.075-0.085-0.242-0.072-0.339c-0.201,0.056-0.222-0.2-0.367-0.256c-0.035-0.117-0.162-0.138-0.268-0.157
			c-0.238,0.116-0.277-0.184-0.46-0.252c-0.02-0.055-0.062-0.137,0-0.183c0.094-0.074,0.212-0.009,0.319-0.014L80.094,42.043z
			 M75.711,43.291c-0.407,0.13,0.065,0.439-0.036,0.692c-0.052,0.146-0.208,0.011-0.312,0.069L75.32,44.32
			c-0.062,0.157-0.256,0.042-0.346,0.147c-0.066,0.101,0.004,0.205,0.061,0.285c-0.145,0.326,0.318,0.426,0.312,0.718
			c0.142,0.18-0.021,0.445,0.182,0.604c0.047,0.329-0.043,0.773,0.242,1.03l0.05,0.313c0.062,0.217-0.259,0.16-0.219,0.353
			c0.062-0.029,0.079,0.049,0.083,0.071v-0.01c0.387-0.45,0.837-0.922,1.299-1.32l-0.193-0.193
			c-0.357-0.535-0.641-1.106-0.776-1.731l-0.148-0.076c-0.004,0.161-0.081,0.288-0.068,0.449l-0.049,0.062
			c-0.104-0.005-0.172-0.092-0.262-0.146c-0.025-0.056-0.08-0.147,0.009-0.192c0.049-0.004,0.085,0.009,0.118,0.037
			c0.046-0.055,0.029-0.136,0.053-0.208c0.017-0.122-0.09-0.231-0.016-0.338c0.098-0.008,0.166,0.106,0.207,0.17
			c0.098,0.031,0.172-0.049,0.256-0.084c0-0.086,0.117-0.201-0.013-0.253c0.066-0.194,0.019-0.403-0.013-0.594
			C76.034,43.245,75.846,43.276,75.711,43.291z M85.157,43.463c-0.04,0.02-0.095,0.004-0.142,0.009
			C85.057,43.453,85.114,43.463,85.157,43.463z M84.844,43.957L85,44.113c0.156,0.105,0.051,0.334,0.217,0.423
			c0.201,0.1,0.269,0.327,0.355,0.5c0.025-0.045,0.025-0.1,0.044-0.148c0.073-0.275,0.062-0.59,0.146-0.862
			C85.46,44.043,85.114,44.073,84.844,43.957z M88.299,44.026l-0.088-0.058l0.049,0.133c-0.081,1.682-0.64,3.166-1.599,4.481
			c-0.188,0.22-0.364,0.495-0.599,0.65c0.387,0.303,0.81,0.758,1.128,1.105l0.042-0.074c1.541-1.763,2.419-3.803,2.516-6.164
			l0.062-0.119l-0.078,0.036L88.299,44.026z M86.273,43.993c0.027,0.306-0.053,0.604-0.073,0.908l0.17,0.18
			c0.043,0.07,0.029,0.178-0.038,0.231c-0.066,0.048-0.16,0.041-0.231-0.013c-0.213,0.676-0.456,1.338-0.883,1.928
			c-0.166,0.211-0.323,0.504-0.545,0.615l0.458,0.404c0.026-0.023,0.012-0.065,0.016-0.102c0-0.06,0.032-0.13,0.108-0.121
			c0.22-0.006,0.226,0.232,0.354,0.353c-0.03,0.192,0.141,0.343,0.084,0.52c1.27-1.343,1.906-2.987,2.022-4.809l0.074-0.081
			c-0.457,0.045-0.938,0.015-1.406,0.021L86.273,43.993z M74.5,44.006l0.075,0.123c0.01,0.33,0.14,0.649,0.069,0.989
			c0.057-0.096,0.069-0.229,0.191-0.288c0.018-0.092-0.122-0.117-0.103-0.208c0.094-0.188,0-0.489,0.248-0.571
			C74.807,44.083,74.651,44.118,74.5,44.006z M72.068,44.026l-0.138,0.051l-1.402-0.01c0.082,1.614,0.512,3.082,1.236,4.432
			c0.361,0.663,0.883,1.265,1.342,1.884l1.006-1.037l0.123-0.052c-0.174-0.122-0.326-0.32-0.474-0.484
			c-0.164-0.045-0.338-0.163-0.422-0.323c-0.051-0.056-0.006-0.156-0.062-0.198l-0.06,0.076c-0.176,0.085-0.242-0.095-0.359-0.171
			c-0.156-0.086-0.086-0.384-0.298-0.329c-0.081-0.004-0.104-0.095-0.154-0.146c-0.198,0.022-0.247-0.196-0.356-0.301
			c-0.018,0.045,0,0.105-0.057,0.134c-0.203,0.048-0.272-0.201-0.409-0.301c-0.034,0.015-0.062,0.055-0.11,0.047
			c-0.122-0.107-0.2-0.262-0.208-0.427c-0.165-0.187-0.091-0.485-0.06-0.71c0.029-0.062,0.116-0.098,0.104-0.172
			c0.042-0.106,0.153-0.116,0.263-0.122c0.039,0.021,0.079,0.062,0.098,0.096c0.067-0.042,0.215,0.005,0.156-0.14
			c0.088-0.076,0.213-0.102,0.328-0.121c0.083,0.1,0.121,0.214,0.225,0.312l-0.067-0.112c-0.118-0.494-0.222-0.998-0.241-1.533
			c0.005-0.029-0.065-0.044-0.028-0.075l0.011,0.014C72.055,44.2,72.045,44.102,72.068,44.026z M74.042,44.026l-0.111,0.051
			c-0.471-0.01-0.954,0.03-1.401-0.034l0.061,0.085l0.113,0.928c0.045,0.358,0.195,0.702,0.189,1.055
			c0.053-0.075,0.02-0.227,0.155-0.243c-0.057-0.11,0.105-0.207,0.014-0.303c0.046-0.242,0.077-0.488,0.288-0.665
			c0.257-0.013,0.274-0.349,0.537-0.365c0.131-0.005,0.208,0.173,0.267,0.233C73.993,44.572,74,44.251,74.042,44.026z
			 M76.634,44.649c0.141,0.261,0.218,0.558,0.364,0.821c0.09,0.233,0.292,0.414,0.381,0.641c0.101-0.181,0.289-0.328,0.429-0.495
			c0.012-0.075-0.009-0.141-0.052-0.196c-0.043-0.108-0.002-0.259-0.083-0.35c-0.132,0.048,0.048,0.179-0.009,0.254
			c-0.055,0.036-0.117-0.012-0.123-0.061c-0.112-0.021-0.204-0.121-0.242-0.227c0.098-0.06-0.024-0.086-0.051-0.135
			c-0.047-0.026-0.055-0.021-0.094,0.023c-0.026,0-0.055,0.004-0.075-0.01C77.08,44.627,76.753,44.799,76.634,44.649z
			 M78.219,45.047c-0.031,0.125-0.115,0.237-0.208,0.326l0.017,0.012c0.121-0.086,0.205-0.243,0.36-0.254L78.219,45.047z
			 M82.204,45.459c0.006,0.076,0.014,0.178,0.08,0.244c0.199-0.032,0.112,0.243,0.295,0.214c0.104-0.028,0.006-0.115,0.038-0.18
			c-0.032-0.151-0.181-0.167-0.282-0.257c-0.008-0.031,0.015-0.057,0.025-0.079C82.284,45.36,82.248,45.406,82.204,45.459z
			 M85.062,45.47c-0.147-0.011-0.323,0.076-0.45-0.025c-0.045-0.039-0.076,0.02-0.068,0.06c-0.051,0.078-0.104,0.173-0.218,0.138
			c-0.093-0.041-0.093-0.138-0.123-0.208c0.005,0.057-0.015,0.107-0.026,0.155c-0.104,0.113-0.141,0.22-0.215,0.34
			c-0.104,0.116-0.276,0.076-0.387,0.17c-0.021,0.242-0.29,0.191-0.443,0.269c-0.008,0.031,0.026,0.035,0.04,0.062
			c0.075,0.018,0.167,0.018,0.22-0.052c0.214,0.055,0.166-0.212,0.285-0.304c0.107-0.013,0.21-0.105,0.322-0.034
			c0.108,0.137,0.135,0.332,0.119,0.51c-0.119,0.12-0.059,0.315-0.146,0.458c0.021,0.167-0.183,0.243-0.157,0.41
			c-0.063,0.076-0.175,0.084-0.276,0.084c-0.396-0.151-0.817-0.248-1.262-0.286c-0.04,0.016-0.066,0.05-0.062,0.095
			c0.184,0.095,0.406,0.102,0.597,0.183c0.172,0.045,0.291,0.254,0.51,0.19c0.177-0.102,0.479,0.061,0.603-0.132
			c-0.021-0.186,0.141-0.319,0.224-0.483l0.059-0.015c0.104,0.106,0.098,0.264,0.145,0.377c0.142-0.15,0.251-0.315,0.377-0.475
			c0.334-0.483,0.615-1.002,0.736-1.556C85.323,45.406,85.188,45.431,85.062,45.47z M78.705,45.47
			c-0.217,0.354-0.632,0.676-0.935,1.004c0.541,0.445,1.146,0.723,1.816,0.837c0.032-0.137-0.02-0.309,0.052-0.426
			c0.052-0.108,0.187-0.103,0.285-0.083c0.062-0.004,0.097-0.08,0.062-0.132c-0.148-0.03-0.081-0.19-0.131-0.284
			c0.004-0.048,0.088-0.039,0.069-0.104c-0.1-0.081,0.052-0.172-0.034-0.258c0.034-0.024,0.062-0.08,0.11-0.08
			c-0.315,0.166-0.664-0.037-0.944-0.162C78.926,45.709,78.731,45.632,78.705,45.47z M81.635,46.354
			c-0.016,0.04-0.067,0.109,0,0.135c0.122-0.125,0.381-0.12,0.389-0.304C81.846,46.163,81.757,46.257,81.635,46.354z M82.204,46.731
			c-0.154,0-0.234,0.122-0.354,0.218c-0.143,0.082-0.208-0.15-0.326-0.096c0.003,0.024,0.031,0.033,0.049,0.044
			c0.035,0.037,0.043,0.111,0,0.148c-0.168,0.155-0.251-0.077-0.412-0.063v0.063c0.006,0.034-0.011,0.09-0.058,0.071
			c-0.105-0.168-0.312-0.108-0.413-0.254c-0.066-0.034-0.124,0.009-0.172,0.051c-0.035,0.076-0.195-0.012-0.154,0.12
			c-0.127,0.046-0.144,0.184-0.231,0.266c-0.156-0.029-0.229,0.149-0.374,0.143c0.015,0.029,0,0.081,0.045,0.086
			c0.089,0.041,0.183,0.05,0.292,0.037c0.151-0.241,0.404-0.042,0.62-0.133c0.127,0.026,0.035,0.168,0.134,0.219
			c0.207-0.068,0.36,0.175,0.529,0.025c-0.011-0.238,0.258-0.218,0.403-0.279c0.229-0.136,0.484-0.317,0.459-0.618L82.204,46.731z
			 M77.337,46.873c-0.301,0.364-0.652,0.741-1.007,1.03c0.157,0.01,0.242,0.182,0.375,0.258c0.754,0.629,1.699,0.932,2.578,1.149
			l-0.241-0.112c-0.181-0.205-0.442-0.448-0.45-0.734c0.182-0.062,0.162-0.265,0.221-0.399c0.154-0.162,0.334-0.247,0.534-0.293
			c-0.513,0.209-0.958-0.167-1.382-0.364C77.75,47.246,77.466,47.117,77.337,46.873z M84.346,48.28l-0.038-0.094
			c-0.046,0.121-0.137,0.196-0.225,0.288c0.004,0.08-0.024,0.201,0.069,0.257c0.201,0.063,0.466,0.195,0.513,0.432
			c-0.086,0.223-0.51,0.425-0.246,0.667c0.088,0.119-0.121,0.166-0.086,0.27l0.072-0.098c0.3-0.236,0.629-0.456,0.898-0.752h0.033
			c-0.06-0.021-0.138,0.04-0.209,0.009c-0.142-0.063-0.165-0.19-0.165-0.336L84.346,48.28z M76.231,48.474l-0.021-0.037l0.021,0.063
			V48.474z M76.391,48.69c-0.064-0.042-0.104-0.081-0.117-0.158L76.391,48.69z M76.425,48.731c0.032,0.119,0.196,0.195,0.147,0.347
			c-0.085,0.137-0.265,0.141-0.404,0.137c-0.284-0.046-0.499,0.17-0.77,0.201c-0.248,0.079-0.334-0.227-0.562-0.201
			c1.403,1.229,3.005,1.994,4.887,2.094l0.14,0.098l-0.062-0.174V49.9l-0.117,0.049C78.456,49.891,77.379,49.441,76.425,48.731z
			 M85.752,49.673l-0.023-0.121c-0.139,0.277-0.454,0.455-0.692,0.664c-0.329,0.33-0.863,0.4-1.031,0.873
			c-0.175,0.162-0.235,0.418-0.479,0.509c-0.092,0.239-0.354,0.225-0.498,0.399c-0.422,0.381-0.695-0.238-1.078-0.315l-0.773,0.137
			c-0.264,0-0.532,0.098-0.786,0.011c0.036,0.515,0.036,1.069,0,1.584l0.096-0.06c2.434-0.107,4.532-1.03,6.335-2.666L85.752,49.673
			z M74.551,49.659l-0.016,0.06l-1.038,1.045c1.575,1.364,3.351,2.242,5.378,2.52c0.324,0.057,0.692,0.021,1.006,0.119l-0.079-0.119
			v-1.366l0.053-0.078l-0.157,0.041C77.73,51.742,75.988,51.046,74.551,49.659z M80.311,50.014l0.076,0.108
			c0,0.413,0.051,0.838,0,1.244c0.37-0.123,0.809-0.104,1.213-0.171c-0.084-0.028-0.162-0.049-0.223-0.131
			c-0.236-0.015-0.349-0.263-0.421-0.448c-0.039-0.136,0.051-0.248,0.109-0.363c-0.104-0.206-0.414-0.054-0.599-0.131
			C80.418,50.083,80.383,50.021,80.311,50.014z"/>
		<g>
			<path fill="#267BB2" d="M89.593,35.504c0.739,0.662,1.075,1.518,1.294,2.406l0.118,0.282c-1.075-0.771-2.046-1.811-2.734-2.906
				l-0.838-0.848C88.173,34.752,88.961,34.939,89.593,35.504z"/>
			<path fill="#267BB2" d="M70.832,36.823c-0.494,0.609-1.124,1.015-1.686,1.538c0.302-0.625,0.312-1.372,0.743-1.949
				c0.608-1.063,1.735-1.436,2.75-1.832C71.897,35.23,71.383,36.055,70.832,36.823z"/>
			<path fill="#267BB2" d="M92.213,37.938c0.24,1.06-0.104,2.094,0.115,3.164l-0.01,0.008c-0.576-1.135-1.802-1.67-2.646-2.578
				c-0.489-0.541-0.7-1.195-0.819-1.893c0.483,1.166,1.782,1.424,2.53,2.402c0.257,0.228,0.334,0.541,0.494,0.798l0.025-0.024
				c-0.426-0.919-0.573-1.954-0.873-2.934c-0.15-0.424-0.449-0.842-0.847-1.11C91.161,35.974,92.016,36.997,92.213,37.938z"/>
			<path fill="#267BB2" d="M69.913,35.953c-1.001,0.687-0.934,1.918-1.252,2.942c-0.102,0.378-0.274,0.727-0.363,1.115l0.029,0.021
				c0.164-0.442,0.457-0.854,0.819-1.213c0.712-0.655,1.763-1.063,2.111-2.031c-0.018,1.347-1.146,2.407-2.215,3.164
				c-0.448,0.389-0.876,0.833-1.115,1.332c-0.026-0.337,0.048-0.684,0.021-1.045c-0.112-1.175-0.202-2.516,0.632-3.39
				C68.94,36.397,69.399,36.083,69.913,35.953z"/>
			<path fill="#267BB2" d="M92.849,38.169c0.892,1.212,1.09,3.14,0.438,4.527c-0.243,0.588-0.415,1.215-0.511,1.866
				c-0.047-0.111-0.057-0.263-0.101-0.388c-0.35-1.358-1.639-2.327-2.167-3.608c-0.165-0.417-0.306-0.853-0.388-1.307
				c0.564,1.044,1.957,1.585,2.336,2.736c0.156,0.292,0.146,0.654,0.242,0.967c0.021,0,0.039-0.015,0.039-0.034
				c-0.166-1.187-0.114-2.429,0.047-3.6c-0.01-0.635-0.07-1.251-0.422-1.74C92.59,37.721,92.69,37.97,92.849,38.169z"/>
			<path fill="#267BB2" d="M67.778,37.79c-0.77,1.165-0.131,2.635-0.167,3.961l-0.103,1.359c0.018,0.008,0.018,0.049,0.053,0.032
				c0.045-0.149,0.054-0.311,0.086-0.468c0.182-1.094,1.131-1.873,1.965-2.629c0.179-0.193,0.33-0.398,0.422-0.63
				c-0.066,0.544-0.235,1.095-0.464,1.601c-0.646,1.26-1.842,2.296-2.062,3.736c-0.104-1.38-1.046-2.416-0.951-3.884
				c-0.03-1.188,0.463-2.165,1.16-3.051C67.737,37.805,67.754,37.785,67.778,37.79z"/>
			<path fill="#267BB2" d="M93.684,46.025c-0.529,0.753-1.168,1.454-1.66,2.221c0.057-0.607,0.123-1.351-0.109-1.928
				c-0.409-1.237-0.768-2.493-0.885-3.85l0.018-0.52c0.31,1.387,1.67,2.34,1.581,3.894c0.034,0.378-0.085,0.696-0.154,1.029
				l0.028,0.025l0.06-0.068c0.201-0.764,0.301-1.565,0.617-2.277c0.447-1.025,1-2.059,0.774-3.296
				C94.635,42.715,94.426,44.664,93.684,46.025z"/>
			<path fill="#267BB2" d="M67.388,45.542c0.148,0.51,0.188,1.058,0.39,1.538c0.021,0.01,0.033-0.01,0.051-0.025
				c-0.52-1.453,0.228-2.801,0.979-3.937c0.181-0.308,0.288-0.649,0.38-1.002c0.078,0.656-0.09,1.411-0.185,2.093
				c-0.18,0.868-0.456,1.691-0.691,2.533c-0.154,0.524-0.114,1.119-0.036,1.67l-0.074-0.061c-0.551-1.016-1.639-1.808-1.963-2.918
				c-0.269-0.882-0.445-1.908-0.262-2.872c0.084-0.375,0.152-0.756,0.312-1.099C65.982,43.039,67.043,44.173,67.388,45.542z"/>
			<path fill="#267BB2" d="M91.601,48.413c-0.039,0.68-0.261,1.286-0.616,1.831h0.062c0.48-0.635,0.861-1.312,1.427-1.916
				c0.881-0.849,1.772-1.717,1.889-2.894c0.297,1.962-0.803,3.683-2.432,4.794c-0.673,0.438-1.351,0.849-2.001,1.346v-0.059
				c0.99-1.646,0.507-3.903,1.117-5.708l0.226-0.608C91.147,46.328,91.639,47.282,91.601,48.413z"/>
			<path fill="#267BB2" d="M69.932,50.641c0.108,0.375,0.323,0.707,0.465,1.066c-1.504-1.023-3.55-1.998-4.222-3.875
				c-0.278-0.648-0.307-1.447-0.251-2.19c0.124,1.67,1.919,2.553,2.751,3.935c0.197,0.284,0.371,0.597,0.632,0.833
				c-0.041-0.176-0.209-0.327-0.265-0.51c-0.294-0.58-0.401-1.272-0.328-1.971c0.078-0.855,0.438-1.646,0.303-2.544
				C69.745,46.963,69.522,48.932,69.932,50.641z"/>
			<path fill="#267BB2" d="M89.361,51.889c-0.257,0.448-0.622,0.883-1.027,1.235c0.128-0.004,0.245-0.119,0.36-0.196
				c1.086-1.078,2.5-1.383,3.672-2.261c0.469-0.374,0.898-0.862,1.104-1.392c-0.224,1.791-2.007,3.472-3.685,4.006
				c-0.871,0.234-1.797,0.307-2.639,0.596c1.428-1.229,1.346-3.123,2.301-4.566c0.301-0.41,0.557-0.837,0.906-1.227
				C89.772,49.25,90.028,50.758,89.361,51.889z"/>
			<path fill="#267BB2" d="M71.342,50.375c0.506,1.242,0.695,2.643,1.862,3.582c-1.261-0.41-2.741-0.297-3.852-1.074
				c-1.216-0.746-2.301-2.014-2.53-3.404c0.837,1.896,2.936,2.054,4.348,3.207c0.258,0.229,0.53,0.426,0.822,0.562l0.018-0.019
				c-0.322-0.291-0.699-0.621-0.926-1c-0.819-1.145-0.535-2.75-1.151-3.981C70.495,48.915,71.004,49.614,71.342,50.375z"/>
			<path fill="#267BB2" d="M86.305,54.068c-0.308,0.203-0.695,0.238-1.014,0.389c0.456,0.011,0.87-0.15,1.318-0.196
				c1.666-0.263,3.572,0.005,4.737-1.411c-0.433,0.986-1.519,1.815-2.51,2.164c-1.696,0.642-3.408-0.147-5.04-0.41l-0.311-0.039
				v-0.01c0.772-0.178,1.531-0.408,2.154-0.971c0.912-0.878,1.723-1.779,2.736-2.473C87.632,52.076,87.549,53.447,86.305,54.068z"/>
			<path fill="#267BB2" d="M74.638,53.609c0.644,0.565,1.419,0.828,2.238,0.992c-0.196,0.071-0.456,0.053-0.666,0.107
				c-1.47,0.366-3.104,0.952-4.662,0.424c-1.014-0.318-2.061-1.119-2.569-2.119c1.345,1.528,3.54,1.021,5.328,1.418
				c0.25,0.035,0.486,0.135,0.752,0.098c-0.209-0.139-0.509-0.121-0.74-0.242c-1.404-0.496-1.609-2.016-2.373-3.039
				C72.92,51.893,73.737,52.766,74.638,53.609z"/>
			<path fill="#267BB2" d="M85.598,55.68c1.088,0.401,2.5,0.29,3.432-0.375c-0.476,0.6-1.133,1.028-1.814,1.271
				c-1.512,0.566-3.094-0.024-4.271-0.922c-0.481-0.305-0.904-0.744-1.525-0.703c-0.222-0.004-0.438,0.006-0.63,0.062
				c1.148,0.532,2.215,1.27,3.194,2.215c-0.168,0.186-0.378,0.363-0.584,0.521c-0.938-1.013-1.98-1.983-3.146-2.556
				c-0.228,0.029-0.442,0.168-0.651,0.276c-0.949,0.604-1.888,1.374-2.595,2.316l-0.604-0.498c0.969-0.981,2.038-1.743,3.209-2.288
				c-1.146-0.361-1.9,0.602-2.773,1.09c-1.02,0.713-2.482,1.045-3.715,0.557c-0.659-0.254-1.303-0.619-1.779-1.223
				c0.968,0.666,2.41,0.738,3.513,0.305c1.477-0.643,3.01-1.455,4.793-1.064c0.276,0.005,0.551,0.281,0.815,0.045
				c1.318-0.343,2.817-0.107,3.957,0.499L85.598,55.68z"/>
		</g>
	</g>
	<g>
		<polygon fill="#267BB2" points="19.619,41.155 24.313,42.745 47.265,42.745 48.26,41.155 		"/>
		<path fill="#267BB2" d="M48.262,41.153l-31.117,0.002L48.262,41.153z"/>
		<polygon fill="#267BB2" points="47.265,42.745 47.344,42.745 48.356,41.155 48.26,41.155 		"/>
		<path fill="#267BB2" d="M20.354,35.847c-1.027,1.693-2.232,3.684-3.209,5.309l31.117-0.002l0,0h1.516l-1.306,2.528h-1.794
			L21.713,83.547h6.263l29.873-47.701L20.354,35.847L20.354,35.847z"/>
		<g>
			<g>
				<path fill="#267BB2" d="M49.778,41.153h-1.516l-31.117,0.002l6.94,2.526h22.593h1.794L49.778,41.153z M47.344,42.745h-0.079
					H24.313l-4.694-1.59H48.26h0.097L47.344,42.745z"/>
			</g>
		</g>
	</g>
	<path fill="#267BB2" d="M80.128,12.563c-8.809,0-16.802,3.56-22.618,9.314l2.576,5.915c0-0.001,0.002-0.002,0.002-0.004
		l0.003,0.004h6.115c3.79-3.118,8.643-4.994,13.922-4.994c12.098,0,21.944,9.844,21.944,21.945c0,12.099-9.848,21.94-21.944,21.94
		c-6.087,0-11.743-2.434-15.932-6.85c-3.877-4.094-6.015-9.453-6.015-15.092c0-1.861,0.236-3.668,0.679-5.394l-0.323-3.503h-2.311
		l0.021,1.074h1.311l0.219,2.346c-0.443,1.801-0.671,3.644-0.671,5.477c0,5.914,2.241,11.537,6.312,15.83
		c4.396,4.637,10.328,7.188,16.712,7.188c12.692,0,23.019-10.326,23.019-23.018c0-12.693-10.325-23.018-23.019-23.018
		c-5.181,0-10.244,1.769-14.304,4.992h-2.16h-1.976h-0.641c4.789-5.069,11.567-8.24,19.079-8.24
		c14.481,0,26.265,11.783,26.265,26.266c0,14.48-11.782,26.264-26.265,26.264c-7.286,0-14.056-2.914-19.066-8.199
		c-3.777-3.981-6.172-8.971-6.934-14.325l-4.36,6.942c1.48,4.225,3.845,8.123,7.001,11.45c6.139,6.479,14.438,10.046,23.359,10.046
		c17.744,0,32.18-14.436,32.18-32.178C112.307,26.997,97.873,12.563,80.128,12.563z"/>
	<g>
		<path fill="#267BB2" d="M53.971,47.093L33.567,79.307l-4.517,2.524l-0.03,0.049l-1.045,1.667l6.305-3.468l19.849-31.596
			C54.06,48.023,54.011,47.559,53.971,47.093z"/>
	</g>
</g>
<g>
	<path fill="#267BB2" d="M122.441,23.904c1.689,0.439,3.454,1.143,3.362,3.613c-0.111,2.08-1.974,3.065-3.689,3.065
		c-1.457,0-2.988-0.813-3.631-2.534l1.359-0.703c0.518,1.11,1.395,1.61,2.315,1.61c1.078,0.017,1.83-0.609,1.877-1.533
		c0.096-1.312-1.157-1.719-2.062-1.955c-1.395-0.375-3.241-1.062-3.159-3.268c0.047-2.141,1.797-3.079,3.455-3.079
		c1.438,0,2.8,0.827,3.379,2.438L124.24,22.2c-0.409-1.015-1.235-1.483-1.987-1.483c-0.813-0.018-1.625,0.468-1.686,1.531
		C120.503,23.279,121.661,23.701,122.441,23.904z"/>
	<path fill="#267BB2" d="M130.447,30.348c-1.843,0.188-3.159-0.562-3.159-2.47v-4.004h-0.938v-1.469h0.938v-3.02h1.688v3.02h1.471
		v1.469h-1.471v3.958c0,0.641,0.517,1.062,1.471,0.985V30.348z"/>
	<path fill="#267BB2" d="M133.034,22.373l0.109,0.844c0.5-0.906,1.344-1,1.877-1.017c0.545,0,1.251,0.156,1.813,0.517l-0.72,1.376
		c-1.203-0.75-2.862-0.282-2.862,1.266v4.974h-1.688v-7.96H133.034z"/>
	<path fill="#267BB2" d="M140.791,30.505c-2.38,0-4.146-1.831-4.146-4.13c0-2.313,1.768-4.113,4.146-4.113
		c2.391,0,4.128,1.8,4.128,4.113C144.918,28.674,143.18,30.505,140.791,30.505z M140.791,28.973c1.2,0,2.421-0.846,2.421-2.598
		c0-1.75-1.221-2.564-2.421-2.564c-1.177,0-2.443,0.814-2.443,2.564C138.346,28.127,139.614,28.973,140.791,28.973z"/>
	<path fill="#267BB2" d="M146.173,22.748c1.157-0.407,2.155-0.532,3.237-0.532c2.221,0,4.037,0.971,4.037,3.566v4.55h-1.691v-4.55
		c0-1.596-1.205-2.096-2.502-2.096c-0.45,0-0.938,0.125-1.357,0.235v6.412h-1.724V22.748z"/>
	<path fill="#267BB2" d="M161.879,29.957c0,2.33-1.655,3.425-3.406,3.457c-1.269,0.016-2.502-0.439-3.475-1.408l0.926-1.096
		c0.622,0.611,1.67,0.985,2.562,0.97c0.863-0.015,1.688-0.485,1.688-1.704c-0.45,0.156-0.934,0.251-1.42,0.251
		c-2.707,0-4.158-2.081-4.144-4.16c0.033-2.018,1.485-4.051,4.144-4.051c0.939,0,1.987,0.094,3.127,0.516L161.879,29.957
		L161.879,29.957z M156.296,26.298c0,1.251,0.829,2.612,2.456,2.612c0.453,0,0.97-0.079,1.438-0.22c0-1.658,0.018-3.189,0.018-4.863
		c-0.486-0.08-1.003-0.126-1.456-0.126C157.141,23.701,156.296,25.047,156.296,26.298z"/>
	<path fill="#267BB2" d="M121.049,32.755v7.665c0,1.314,0.986,1.86,1.982,1.86c1.004,0,2.021-0.546,2.021-1.86v-7.665h1.799v7.665
		c0,2.472-1.927,3.487-3.818,3.487c-1.906,0-3.78-1.016-3.78-3.487v-7.665H121.049z"/>
	<path fill="#267BB2" d="M134.827,39.826l0.752,1.641l0.046-0.016l-0.233-2.034v-6.725h1.799v11.011h-2.05l-4.052-7.131
		l-0.764-1.643l-0.049,0.016l0.25,2.033v6.726h-1.797V32.693h2.078L134.827,39.826z"/>
	<path fill="#267BB2" d="M138.868,43.736v-1.862h1.908v1.862H138.868z"/>
	<path fill="#267BB2" d="M124.835,51.18c1.233,0.45,1.796,1.674,1.78,2.644c0,2.267-1.829,3.252-3.77,3.252h-3.456v-11.01h3.487
		c1.817,0,3.269,1.141,3.269,3.019C126.146,49.833,125.786,50.742,124.835,51.18z M122.878,50.505c1.097,0,1.563-0.748,1.563-1.438
		c0-0.671-0.468-1.392-1.563-1.392h-1.704v2.829L122.878,50.505L122.878,50.505z M121.174,52.07v3.348h1.704
		c1.393,0,2.018-0.828,2.018-1.641c0-0.814-0.643-1.707-2.018-1.707H121.174z"/>
	<path fill="#267BB2" d="M133.844,54.65l1.25,0.768c-0.924,1.234-2.125,1.781-3.44,1.781c-2.705,0-4.066-2.064-4.051-4.111
		c0-2.049,1.407-4.114,4.037-4.128c2.296-0.017,3.893,1.72,3.893,3.938c0,0.235-0.017,0.549-0.064,0.908h-6.16
		c0.188,0.985,1.019,1.877,2.347,1.877C132.359,55.684,133.184,55.559,133.844,54.65z M133.874,52.398
		c-0.235-1.174-1.016-1.894-2.221-1.924c-1.344,0.018-2.094,0.782-2.316,1.924H133.874z"/>
	<path fill="#267BB2" d="M139.999,57.091c-1.846,0.188-3.156-0.562-3.156-2.471v-4.004h-0.938v-1.472h0.938v-3.018h1.688v3.018H140
		v1.472h-1.469v3.957c0,0.641,0.515,1.062,1.469,0.983L139.999,57.091L139.999,57.091z"/>
	<path fill="#267BB2" d="M144.101,57.091c-1.849,0.188-3.16-0.562-3.16-2.471v-4.004h-0.938v-1.472h0.938v-3.018h1.688v3.018h1.473
		v1.472h-1.473v3.957c0,0.641,0.519,1.062,1.473,0.983V57.091z"/>
	<path fill="#267BB2" d="M150.739,54.65l1.254,0.768c-0.92,1.234-2.128,1.781-3.442,1.781c-2.704,0-4.063-2.064-4.048-4.111
		c0-2.049,1.407-4.114,4.033-4.128c2.299-0.017,3.896,1.72,3.896,3.938c0,0.235-0.017,0.549-0.063,0.908h-6.161
		c0.188,0.985,1.017,1.877,2.345,1.877C149.254,55.684,150.083,55.559,150.739,54.65z M150.77,52.398
		c-0.23-1.174-1.017-1.894-2.221-1.924c-1.343,0.018-2.095,0.782-2.312,1.924H150.77z"/>
	<path fill="#267BB2" d="M155.17,49.114l0.111,0.844c0.5-0.906,1.348-0.999,1.876-1.016c0.549,0,1.253,0.156,1.813,0.518
		l-0.718,1.374c-1.205-0.752-2.862-0.279-2.862,1.27v4.972h-1.689v-7.96L155.17,49.114L155.17,49.114z"/>
	<path fill="#267BB2" d="M124.989,64.957l-1.482,5.537h-2.161l-2.892-11.027h1.862l1.857,7.602l0.25,1.877h0.064l0.295-1.877
		l1.646-6.284h1.969l1.644,6.284l0.297,1.877h0.062l0.248-1.877l1.863-7.602h1.86l-2.894,11.027h-2.157l-1.487-5.537l-0.393-2.143
		h-0.062L124.989,64.957z"/>
	<path fill="#267BB2" d="M136.204,70.617c-2.379,0-4.147-1.828-4.147-4.128c0-2.313,1.77-4.111,4.147-4.111
		c2.394,0,4.127,1.798,4.127,4.111C140.331,68.789,138.596,70.617,136.204,70.617z M136.204,69.085c1.203,0,2.422-0.844,2.422-2.597
		c0-1.752-1.219-2.563-2.422-2.563c-1.175,0-2.439,0.812-2.439,2.563C133.763,68.242,135.029,69.085,136.204,69.085z"/>
	<path fill="#267BB2" d="M143.042,62.486l0.111,0.845c0.502-0.907,1.344-1.001,1.875-1.017c0.548,0,1.251,0.155,1.812,0.516
		l-0.719,1.377c-1.203-0.752-2.861-0.281-2.861,1.268v4.971h-1.688v-7.959H143.042L143.042,62.486z"/>
	<path fill="#267BB2" d="M150.348,70.46c-1.877,0.205-2.878-0.624-2.878-2.453v-8.51h1.703v8.51c0,0.64,0.22,1,1.175,0.923V70.46
		L150.348,70.46z"/>
	<path fill="#267BB2" d="M157.931,59.498v10.604c-1.111,0.394-2.174,0.486-3.128,0.486c-2.675,0-4.158-2.035-4.144-4.082
		c0-2.689,2.533-5.021,5.566-3.912v-3.096H157.931z M156.227,68.977v-4.85c-1.972-0.891-3.864,0.422-3.877,2.378
		c-0.019,1.22,0.844,2.611,2.453,2.611C155.29,69.102,155.772,69.068,156.227,68.977z"/>
	<path fill="#267BB2" d="M159.821,70.477v-1.859h1.907v1.859H159.821z"/>
</g>
</svg>
